# xmcd CD database file
#
# Track frame offsets:
#	150
#	38250
#	69897
#	95025
#	122160
#	149845
#	178570
#	196947
#	222975
#
# Disc length: 3354 seconds
#
# Revision: 0
# Processed by: cddbd v1.5.2PL0 Copyright (c) Steve Scherf et al.
# Submitted via: CDex 1.70beta2
#
DISCID=810d1809
DTITLE=Searing Quartet - Aquamagia
DYEAR=1998
DGENRE=Jazz
TTITLE0=In Days of Yore
TTITLE1=Exit Ego
TTITLE2=Beware of the Djins
TTITLE3=She isn't like You
TTITLE4=No Mindless Conformity
TTITLE5=Aquamagia
TTITLE6=I am the Judge
TTITLE7=Searing Moments
TTITLE8=Mansuêto
EXTD=YEAR: 1998
EXTT0=
EXTT1=
EXTT2=
EXTT3=
EXTT4=
EXTT5=
EXTT6=
EXTT7=
EXTT8=
PLAYORDER=
